<svg xmlns="http://www.w3.org/2000/svg" xmlns:xlink="http://www.w3.org/1999/xlink" width="240" zoomAndPan="magnify" viewBox="0 0 180 60" height="80" preserveAspectRatio="xMidYMid meet" version="1.0"><defs><clipPath id="fb56e7e348"><path d="M 65 2 L 102 2 L 102 43 L 65 43 Z M 65 2 " clip-rule="nonzero"/></clipPath><clipPath id="5054974483"><path d="M 69.695312 18.132812 C 66.273438 14.261719 65.820312 11.320312 65.820312 10.234375 C 65.820312 5.054688 70.886719 2.71875 73.96875 2.71875 C 79.605469 2.71875 82.039062 6.628906 82.398438 7.425781 C 82.292969 7.503906 79.476562 9.578125 79.289062 9.710938 C 79.136719 8.261719 78.066406 4.652344 74.425781 4.652344 C 70.785156 4.652344 68.105469 8.722656 73.144531 14.429688 L 93.824219 37.84375 L 93.789062 37.808594 C 94.789062 38.941406 95.8125 39.824219 97.183594 39.824219 C 100.617188 39.824219 101.304688 36.765625 101.433594 37 C 102.425781 38.78125 100.234375 42.996094 95.582031 42.996094 C 92.792969 42.996094 91.046875 42.265625 89.515625 40.582031 C 89.515625 40.582031 84.765625 35.203125 84.765625 35.203125 L 83.773438 34.082031 Z M 69.695312 18.132812 " clip-rule="nonzero"/></clipPath><linearGradient x1="199.510008" gradientTransform="matrix(0.327656, 0, 0, 0.3293, 0.451172, -19.173674)" y1="127.639999" x2="311.230008" gradientUnits="userSpaceOnUse" y2="127.639999" id="7e9a696129"><stop stop-opacity="1" stop-color="rgb(74.099731%, 50.59967%, 22.698975%)" offset="0"/><stop stop-opacity="1" stop-color="rgb(74.154663%, 50.701904%, 22.833252%)" offset="0.0078125"/><stop stop-opacity="1" stop-color="rgb(74.267578%, 50.909424%, 23.103333%)" offset="0.015625"/><stop stop-opacity="1" stop-color="rgb(74.380493%, 51.115417%, 23.373413%)" offset="0.0234375"/><stop stop-opacity="1" stop-color="rgb(74.493408%, 51.321411%, 23.641968%)" offset="0.03125"/><stop stop-opacity="1" stop-color="rgb(74.604797%, 51.528931%, 23.912048%)" offset="0.0390625"/><stop stop-opacity="1" stop-color="rgb(74.717712%, 51.734924%, 24.182129%)" offset="0.046875"/><stop stop-opacity="1" stop-color="rgb(74.830627%, 51.942444%, 24.450684%)" offset="0.0546875"/><stop stop-opacity="1" stop-color="rgb(74.942017%, 52.148438%, 24.720764%)" offset="0.0625"/><stop stop-opacity="1" stop-color="rgb(75.054932%, 52.354431%, 24.990845%)" offset="0.0703125"/><stop stop-opacity="1" stop-color="rgb(75.167847%, 52.561951%, 25.260925%)" offset="0.078125"/><stop stop-opacity="1" stop-color="rgb(75.280762%, 52.767944%, 25.52948%)" offset="0.0859375"/><stop stop-opacity="1" stop-color="rgb(75.392151%, 52.975464%, 25.799561%)" offset="0.09375"/><stop stop-opacity="1" stop-color="rgb(75.505066%, 53.181458%, 26.069641%)" offset="0.101562"/><stop stop-opacity="1" stop-color="rgb(75.617981%, 53.387451%, 26.338196%)" offset="0.109375"/><stop stop-opacity="1" stop-color="rgb(75.72937%, 53.594971%, 26.608276%)" offset="0.117188"/><stop stop-opacity="1" stop-color="rgb(75.842285%, 53.800964%, 26.878357%)" offset="0.125"/><stop stop-opacity="1" stop-color="rgb(75.9552%, 54.008484%, 27.148438%)" offset="0.132812"/><stop stop-opacity="1" stop-color="rgb(76.068115%, 54.214478%, 27.416992%)" offset="0.140625"/><stop stop-opacity="1" stop-color="rgb(76.179504%, 54.420471%, 27.687073%)" offset="0.148438"/><stop stop-opacity="1" stop-color="rgb(76.292419%, 54.627991%, 27.957153%)" offset="0.15625"/><stop stop-opacity="1" stop-color="rgb(76.405334%, 54.833984%, 28.225708%)" offset="0.164062"/><stop stop-opacity="1" stop-color="rgb(76.516724%, 55.041504%, 28.495789%)" offset="0.171875"/><stop stop-opacity="1" stop-color="rgb(76.629639%, 55.247498%, 28.765869%)" offset="0.179688"/><stop stop-opacity="1" stop-color="rgb(76.742554%, 55.455017%, 29.034424%)" offset="0.1875"/><stop stop-opacity="1" stop-color="rgb(76.855469%, 55.661011%, 29.304504%)" offset="0.195312"/><stop stop-opacity="1" stop-color="rgb(76.966858%, 55.867004%, 29.574585%)" offset="0.203125"/><stop stop-opacity="1" stop-color="rgb(77.079773%, 56.074524%, 29.844666%)" offset="0.210938"/><stop stop-opacity="1" stop-color="rgb(77.192688%, 56.280518%, 30.11322%)" offset="0.21875"/><stop stop-opacity="1" stop-color="rgb(77.304077%, 56.488037%, 30.383301%)" offset="0.226562"/><stop stop-opacity="1" stop-color="rgb(77.416992%, 56.694031%, 30.653381%)" offset="0.234375"/><stop stop-opacity="1" stop-color="rgb(77.529907%, 56.900024%, 30.921936%)" offset="0.242188"/><stop stop-opacity="1" stop-color="rgb(77.642822%, 57.107544%, 31.192017%)" offset="0.25"/><stop stop-opacity="1" stop-color="rgb(77.754211%, 57.313538%, 31.462097%)" offset="0.257812"/><stop stop-opacity="1" stop-color="rgb(77.867126%, 57.521057%, 31.732178%)" offset="0.265625"/><stop stop-opacity="1" stop-color="rgb(77.980042%, 57.727051%, 32.000732%)" offset="0.273438"/><stop stop-opacity="1" stop-color="rgb(78.091431%, 57.933044%, 32.270813%)" offset="0.28125"/><stop stop-opacity="1" stop-color="rgb(78.204346%, 58.140564%, 32.540894%)" offset="0.289063"/><stop stop-opacity="1" stop-color="rgb(78.317261%, 58.346558%, 32.809448%)" offset="0.296875"/><stop stop-opacity="1" stop-color="rgb(78.430176%, 58.554077%, 33.079529%)" offset="0.304688"/><stop stop-opacity="1" stop-color="rgb(78.541565%, 58.760071%, 33.349609%)" offset="0.3125"/><stop stop-opacity="1" stop-color="rgb(78.65448%, 58.966064%, 33.61969%)" offset="0.320313"/><stop stop-opacity="1" stop-color="rgb(78.767395%, 59.173584%, 33.888245%)" offset="0.328125"/><stop stop-opacity="1" stop-color="rgb(78.878784%, 59.379578%, 34.158325%)" offset="0.335938"/><stop stop-opacity="1" stop-color="rgb(78.991699%, 59.587097%, 34.428406%)" offset="0.34375"/><stop stop-opacity="1" stop-color="rgb(79.104614%, 59.793091%, 34.69696%)" offset="0.351563"/><stop stop-opacity="1" stop-color="rgb(79.217529%, 59.999084%, 34.967041%)" offset="0.359375"/><stop stop-opacity="1" stop-color="rgb(79.328918%, 60.206604%, 35.237122%)" offset="0.367188"/><stop stop-opacity="1" stop-color="rgb(79.441833%, 60.412598%, 35.507202%)" offset="0.375"/><stop stop-opacity="1" stop-color="rgb(79.554749%, 60.620117%, 35.775757%)" offset="0.382813"/><stop stop-opacity="1" stop-color="rgb(79.666138%, 60.826111%, 36.045837%)" offset="0.390625"/><stop stop-opacity="1" stop-color="rgb(79.779053%, 61.03363%, 36.315918%)" offset="0.398438"/><stop stop-opacity="1" stop-color="rgb(79.891968%, 61.239624%, 36.584473%)" offset="0.40625"/><stop stop-opacity="1" stop-color="rgb(80.004883%, 61.445618%, 36.854553%)" offset="0.414063"/><stop stop-opacity="1" stop-color="rgb(80.116272%, 61.653137%, 37.124634%)" offset="0.421875"/><stop stop-opacity="1" stop-color="rgb(80.229187%, 61.859131%, 37.394714%)" offset="0.429688"/><stop stop-opacity="1" stop-color="rgb(80.342102%, 62.06665%, 37.663269%)" offset="0.4375"/><stop stop-opacity="1" stop-color="rgb(80.455017%, 62.272644%, 37.93335%)" offset="0.445313"/><stop stop-opacity="1" stop-color="rgb(80.566406%, 62.478638%, 38.20343%)" offset="0.453125"/><stop stop-opacity="1" stop-color="rgb(80.679321%, 62.686157%, 38.471985%)" offset="0.460938"/><stop stop-opacity="1" stop-color="rgb(80.792236%, 62.892151%, 38.742065%)" offset="0.46875"/><stop stop-opacity="1" stop-color="rgb(80.903625%, 63.09967%, 39.012146%)" offset="0.476563"/><stop stop-opacity="1" stop-color="rgb(81.016541%, 63.305664%, 39.280701%)" offset="0.484375"/><stop stop-opacity="1" stop-color="rgb(81.129456%, 63.511658%, 39.550781%)" offset="0.492188"/><stop stop-opacity="1" stop-color="rgb(81.242371%, 63.719177%, 39.820862%)" offset="0.5"/><stop stop-opacity="1" stop-color="rgb(81.35376%, 63.925171%, 40.090942%)" offset="0.507813"/><stop stop-opacity="1" stop-color="rgb(81.466675%, 64.13269%, 40.359497%)" offset="0.515625"/><stop stop-opacity="1" stop-color="rgb(81.57959%, 64.338684%, 40.629578%)" offset="0.523438"/><stop stop-opacity="1" stop-color="rgb(81.690979%, 64.544678%, 40.899658%)" offset="0.53125"/><stop stop-opacity="1" stop-color="rgb(81.803894%, 64.752197%, 41.168213%)" offset="0.539063"/><stop stop-opacity="1" stop-color="rgb(81.916809%, 64.958191%, 41.438293%)" offset="0.546875"/><stop stop-opacity="1" stop-color="rgb(82.029724%, 65.16571%, 41.708374%)" offset="0.554688"/><stop stop-opacity="1" stop-color="rgb(82.141113%, 65.371704%, 41.978455%)" offset="0.5625"/><stop stop-opacity="1" stop-color="rgb(82.254028%, 65.577698%, 42.247009%)" offset="0.570313"/><stop stop-opacity="1" stop-color="rgb(82.366943%, 65.785217%, 42.51709%)" offset="0.578125"/><stop stop-opacity="1" stop-color="rgb(82.478333%, 65.991211%, 42.78717%)" offset="0.585938"/><stop stop-opacity="1" stop-color="rgb(82.591248%, 66.19873%, 43.055725%)" offset="0.59375"/><stop stop-opacity="1" stop-color="rgb(82.704163%, 66.404724%, 43.325806%)" offset="0.601563"/><stop stop-opacity="1" stop-color="rgb(82.817078%, 66.612244%, 43.595886%)" offset="0.609375"/><stop stop-opacity="1" stop-color="rgb(82.928467%, 66.818237%, 43.865967%)" offset="0.617188"/><stop stop-opacity="1" stop-color="rgb(83.041382%, 67.024231%, 44.134521%)" offset="0.625"/><stop stop-opacity="1" stop-color="rgb(83.154297%, 67.23175%, 44.404602%)" offset="0.632813"/><stop stop-opacity="1" stop-color="rgb(83.265686%, 67.437744%, 44.674683%)" offset="0.640625"/><stop stop-opacity="1" stop-color="rgb(83.378601%, 67.645264%, 44.943237%)" offset="0.648438"/><stop stop-opacity="1" stop-color="rgb(83.491516%, 67.851257%, 45.213318%)" offset="0.65625"/><stop stop-opacity="1" stop-color="rgb(83.604431%, 68.057251%, 45.483398%)" offset="0.664063"/><stop stop-opacity="1" stop-color="rgb(83.71582%, 68.264771%, 45.753479%)" offset="0.671875"/><stop stop-opacity="1" stop-color="rgb(83.828735%, 68.470764%, 46.022034%)" offset="0.679688"/><stop stop-opacity="1" stop-color="rgb(83.94165%, 68.678284%, 46.292114%)" offset="0.6875"/><stop stop-opacity="1" stop-color="rgb(84.05304%, 68.884277%, 46.562195%)" offset="0.695313"/><stop stop-opacity="1" stop-color="rgb(84.165955%, 69.090271%, 46.83075%)" offset="0.703125"/><stop stop-opacity="1" stop-color="rgb(84.27887%, 69.297791%, 47.10083%)" offset="0.710938"/><stop stop-opacity="1" stop-color="rgb(84.391785%, 69.503784%, 47.370911%)" offset="0.71875"/><stop stop-opacity="1" stop-color="rgb(84.503174%, 69.711304%, 47.639465%)" offset="0.726563"/><stop stop-opacity="1" stop-color="rgb(84.616089%, 69.917297%, 47.909546%)" offset="0.734375"/><stop stop-opacity="1" stop-color="rgb(84.729004%, 70.123291%, 48.179626%)" offset="0.742188"/><stop stop-opacity="1" stop-color="rgb(84.840393%, 70.330811%, 48.449707%)" offset="0.75"/><stop stop-opacity="1" stop-color="rgb(84.953308%, 70.536804%, 48.718262%)" offset="0.757813"/><stop stop-opacity="1" stop-color="rgb(85.066223%, 70.744324%, 48.988342%)" offset="0.765625"/><stop stop-opacity="1" stop-color="rgb(85.179138%, 70.950317%, 49.258423%)" offset="0.773438"/><stop stop-opacity="1" stop-color="rgb(85.290527%, 71.156311%, 49.526978%)" offset="0.78125"/><stop stop-opacity="1" stop-color="rgb(85.403442%, 71.363831%, 49.797058%)" offset="0.789063"/><stop stop-opacity="1" stop-color="rgb(85.516357%, 71.569824%, 50.067139%)" offset="0.796875"/><stop stop-opacity="1" stop-color="rgb(85.627747%, 71.777344%, 50.337219%)" offset="0.804688"/><stop stop-opacity="1" stop-color="rgb(85.740662%, 71.983337%, 50.605774%)" offset="0.8125"/><stop stop-opacity="1" stop-color="rgb(85.853577%, 72.190857%, 50.875854%)" offset="0.820313"/><stop stop-opacity="1" stop-color="rgb(85.966492%, 72.396851%, 51.145935%)" offset="0.828125"/><stop stop-opacity="1" stop-color="rgb(86.077881%, 72.602844%, 51.41449%)" offset="0.835938"/><stop stop-opacity="1" stop-color="rgb(86.190796%, 72.810364%, 51.68457%)" offset="0.84375"/><stop stop-opacity="1" stop-color="rgb(86.303711%, 73.016357%, 51.954651%)" offset="0.851563"/><stop stop-opacity="1" stop-color="rgb(86.4151%, 73.223877%, 52.224731%)" offset="0.859375"/><stop stop-opacity="1" stop-color="rgb(86.528015%, 73.429871%, 52.493286%)" offset="0.867188"/><stop stop-opacity="1" stop-color="rgb(86.64093%, 73.635864%, 52.763367%)" offset="0.875"/><stop stop-opacity="1" stop-color="rgb(86.753845%, 73.843384%, 53.033447%)" offset="0.882813"/><stop stop-opacity="1" stop-color="rgb(86.865234%, 74.049377%, 53.302002%)" offset="0.890625"/><stop stop-opacity="1" stop-color="rgb(86.978149%, 74.256897%, 53.572083%)" offset="0.898438"/><stop stop-opacity="1" stop-color="rgb(87.091064%, 74.462891%, 53.842163%)" offset="0.90625"/><stop stop-opacity="1" stop-color="rgb(87.202454%, 74.668884%, 54.112244%)" offset="0.914063"/><stop stop-opacity="1" stop-color="rgb(87.315369%, 74.876404%, 54.380798%)" offset="0.921875"/><stop stop-opacity="1" stop-color="rgb(87.428284%, 75.082397%, 54.650879%)" offset="0.929688"/><stop stop-opacity="1" stop-color="rgb(87.541199%, 75.289917%, 54.920959%)" offset="0.9375"/><stop stop-opacity="1" stop-color="rgb(87.652588%, 75.495911%, 55.189514%)" offset="0.945313"/><stop stop-opacity="1" stop-color="rgb(87.765503%, 75.701904%, 55.459595%)" offset="0.953125"/><stop stop-opacity="1" stop-color="rgb(87.878418%, 75.909424%, 55.729675%)" offset="0.960938"/><stop stop-opacity="1" stop-color="rgb(87.989807%, 76.115417%, 55.99823%)" offset="0.96875"/><stop stop-opacity="1" stop-color="rgb(88.122559%, 76.359558%, 56.315613%)" offset="1"/></linearGradient></defs><path fill="#000000" d="M 69.128906 57.035156 L 69.164062 57.035156 C 69.199219 57.035156 69.234375 57.023438 69.261719 56.992188 C 69.292969 56.964844 69.316406 56.929688 69.339844 56.890625 C 69.363281 56.851562 69.378906 56.8125 69.390625 56.765625 C 69.398438 56.71875 69.40625 56.675781 69.40625 56.640625 L 69.40625 52.792969 C 69.40625 52.757812 69.398438 52.71875 69.390625 52.675781 C 69.378906 52.632812 69.363281 52.589844 69.339844 52.550781 C 69.316406 52.511719 69.292969 52.476562 69.257812 52.449219 C 69.226562 52.421875 69.191406 52.410156 69.152344 52.410156 L 69.113281 52.410156 L 69.113281 52.335938 L 70.34375 52.335938 C 70.808594 52.335938 71.167969 52.4375 71.429688 52.632812 C 71.695312 52.832031 71.824219 53.09375 71.824219 53.421875 C 71.824219 53.5625 71.796875 53.691406 71.75 53.800781 C 71.699219 53.910156 71.632812 54.011719 71.558594 54.09375 C 71.480469 54.179688 71.398438 54.257812 71.308594 54.316406 C 71.214844 54.375 71.132812 54.425781 71.050781 54.464844 C 71.261719 54.503906 71.433594 54.570312 71.574219 54.660156 C 71.714844 54.75 71.828125 54.855469 71.914062 54.976562 C 72 55.09375 72.058594 55.21875 72.09375 55.355469 C 72.128906 55.488281 72.144531 55.621094 72.144531 55.753906 C 72.144531 56.003906 72.101562 56.214844 72.003906 56.382812 C 71.910156 56.554688 71.785156 56.695312 71.628906 56.800781 C 71.46875 56.910156 71.289062 56.988281 71.089844 57.039062 C 70.886719 57.089844 70.679688 57.113281 70.46875 57.113281 L 69.132812 57.113281 L 69.132812 57.039062 Z M 71.335938 53.480469 C 71.324219 53.199219 71.222656 52.976562 71.03125 52.8125 C 70.84375 52.648438 70.59375 52.5625 70.277344 52.5625 L 69.90625 52.5625 L 69.90625 54.394531 L 70.292969 54.394531 C 70.503906 54.394531 70.675781 54.367188 70.808594 54.316406 C 70.941406 54.261719 71.046875 54.195312 71.125 54.109375 C 71.207031 54.023438 71.261719 53.929688 71.289062 53.828125 C 71.320312 53.726562 71.335938 53.628906 71.335938 53.527344 Z M 71.644531 55.792969 C 71.605469 55.421875 71.472656 55.132812 71.253906 54.933594 C 71.035156 54.726562 70.726562 54.625 70.328125 54.625 L 69.90625 54.625 L 69.90625 56.875 L 70.34375 56.875 C 70.746094 56.875 71.0625 56.785156 71.296875 56.609375 C 71.53125 56.429688 71.644531 56.1875 71.644531 55.871094 Z M 71.644531 55.792969 " fill-opacity="1" fill-rule="nonzero"/><path fill="#000000" d="M 74.398438 52.332031 L 75.460938 52.332031 L 75.460938 52.40625 L 75.425781 52.40625 C 75.386719 52.40625 75.351562 52.417969 75.320312 52.445312 C 75.292969 52.472656 75.265625 52.503906 75.242188 52.542969 C 75.21875 52.585938 75.203125 52.625 75.191406 52.667969 C 75.183594 52.710938 75.179688 52.75 75.179688 52.78125 L 75.179688 55.640625 C 75.179688 55.828125 75.199219 56.003906 75.238281 56.160156 C 75.277344 56.320312 75.347656 56.457031 75.441406 56.570312 C 75.535156 56.6875 75.660156 56.78125 75.816406 56.84375 C 75.96875 56.90625 76.160156 56.941406 76.386719 56.941406 C 76.632812 56.941406 76.835938 56.902344 76.984375 56.824219 C 77.136719 56.75 77.25 56.648438 77.328125 56.527344 C 77.40625 56.402344 77.460938 56.261719 77.488281 56.109375 C 77.511719 55.957031 77.523438 55.804688 77.523438 55.65625 L 77.523438 52.785156 C 77.523438 52.753906 77.519531 52.710938 77.507812 52.667969 C 77.5 52.625 77.484375 52.585938 77.460938 52.546875 C 77.4375 52.511719 77.410156 52.476562 77.382812 52.449219 C 77.351562 52.421875 77.320312 52.410156 77.285156 52.410156 L 77.246094 52.410156 L 77.246094 52.335938 L 78.0625 52.335938 L 78.0625 52.410156 L 78.027344 52.410156 C 77.988281 52.410156 77.953125 52.421875 77.925781 52.449219 C 77.894531 52.476562 77.875 52.507812 77.851562 52.546875 C 77.828125 52.585938 77.8125 52.625 77.800781 52.667969 C 77.792969 52.710938 77.785156 52.753906 77.785156 52.785156 L 77.785156 55.636719 C 77.785156 55.949219 77.746094 56.207031 77.664062 56.40625 C 77.582031 56.609375 77.472656 56.765625 77.332031 56.882812 C 77.191406 56.996094 77.027344 57.074219 76.839844 57.121094 C 76.652344 57.164062 76.453125 57.1875 76.246094 57.1875 C 76.019531 57.1875 75.8125 57.164062 75.617188 57.117188 C 75.425781 57.074219 75.261719 56.992188 75.121094 56.875 C 74.980469 56.757812 74.871094 56.601562 74.789062 56.402344 C 74.707031 56.199219 74.671875 55.949219 74.671875 55.644531 L 74.671875 52.785156 C 74.671875 52.753906 74.664062 52.710938 74.65625 52.667969 C 74.644531 52.625 74.628906 52.585938 74.605469 52.546875 C 74.582031 52.511719 74.558594 52.476562 74.527344 52.449219 C 74.5 52.421875 74.464844 52.410156 74.429688 52.410156 L 74.394531 52.410156 L 74.394531 52.335938 Z M 74.398438 52.332031 " fill-opacity="1" fill-rule="nonzero"/><path fill="#000000" d="M 83.414062 55.828125 C 83.414062 56.066406 83.363281 56.277344 83.261719 56.445312 C 83.160156 56.617188 83.035156 56.757812 82.875 56.863281 C 82.71875 56.96875 82.539062 57.046875 82.34375 57.09375 C 82.144531 57.140625 81.949219 57.164062 81.753906 57.164062 C 81.554688 57.164062 81.378906 57.144531 81.234375 57.105469 C 81.089844 57.066406 80.957031 57.03125 80.839844 56.996094 C 80.757812 56.972656 80.6875 56.949219 80.621094 56.933594 C 80.554688 56.917969 80.492188 56.90625 80.425781 56.90625 L 80.425781 56.082031 L 80.5 56.082031 C 80.5 56.265625 80.550781 56.410156 80.644531 56.519531 C 80.742188 56.628906 80.855469 56.710938 80.984375 56.769531 C 81.117188 56.828125 81.246094 56.863281 81.375 56.882812 C 81.507812 56.898438 81.601562 56.90625 81.660156 56.90625 C 81.878906 56.90625 82.058594 56.878906 82.21875 56.820312 C 82.371094 56.757812 82.5 56.679688 82.601562 56.578125 C 82.699219 56.480469 82.773438 56.371094 82.824219 56.25 C 82.871094 56.128906 82.894531 56.003906 82.894531 55.878906 C 82.894531 55.722656 82.859375 55.585938 82.792969 55.480469 C 82.722656 55.371094 82.628906 55.273438 82.519531 55.191406 C 82.40625 55.109375 82.28125 55.039062 82.132812 54.980469 C 81.984375 54.921875 81.839844 54.867188 81.691406 54.808594 C 81.519531 54.746094 81.351562 54.679688 81.1875 54.613281 C 81.023438 54.546875 80.878906 54.460938 80.746094 54.363281 C 80.617188 54.261719 80.511719 54.144531 80.433594 54.007812 C 80.351562 53.867188 80.3125 53.699219 80.3125 53.496094 C 80.3125 53.28125 80.351562 53.101562 80.4375 52.941406 C 80.523438 52.785156 80.636719 52.65625 80.78125 52.554688 C 80.921875 52.453125 81.085938 52.375 81.265625 52.328125 C 81.449219 52.277344 81.632812 52.25 81.820312 52.25 C 81.953125 52.25 82.074219 52.261719 82.1875 52.277344 C 82.304688 52.292969 82.414062 52.3125 82.519531 52.339844 C 82.605469 52.359375 82.6875 52.375 82.765625 52.386719 C 82.84375 52.398438 82.921875 52.40625 82.996094 52.40625 L 82.996094 53.152344 L 82.921875 53.152344 C 82.914062 52.898438 82.808594 52.730469 82.613281 52.640625 C 82.417969 52.550781 82.148438 52.503906 81.800781 52.503906 C 81.601562 52.503906 81.4375 52.539062 81.308594 52.605469 C 81.183594 52.667969 81.082031 52.75 81.003906 52.84375 C 80.929688 52.941406 80.878906 53.039062 80.851562 53.148438 C 80.824219 53.257812 80.808594 53.351562 80.808594 53.433594 C 80.808594 53.570312 80.839844 53.683594 80.902344 53.78125 C 80.964844 53.875 81.050781 53.960938 81.15625 54.03125 C 81.261719 54.105469 81.382812 54.171875 81.519531 54.226562 C 81.65625 54.285156 81.800781 54.339844 81.953125 54.394531 C 82.121094 54.457031 82.296875 54.523438 82.46875 54.597656 C 82.648438 54.671875 82.800781 54.761719 82.9375 54.867188 C 83.078125 54.972656 83.1875 55.101562 83.277344 55.257812 C 83.363281 55.414062 83.40625 55.601562 83.40625 55.824219 Z M 83.414062 55.828125 " fill-opacity="1" fill-rule="nonzero"/><path fill="#000000" d="M 85.691406 52.332031 L 86.753906 52.332031 L 86.753906 52.40625 L 86.714844 52.40625 C 86.679688 52.40625 86.648438 52.417969 86.617188 52.445312 C 86.589844 52.472656 86.5625 52.503906 86.542969 52.539062 C 86.523438 52.574219 86.507812 52.613281 86.492188 52.660156 C 86.480469 52.707031 86.472656 52.746094 86.472656 52.777344 L 86.472656 56.632812 C 86.472656 56.675781 86.480469 56.714844 86.492188 56.757812 C 86.5 56.804688 86.515625 56.847656 86.539062 56.886719 C 86.5625 56.925781 86.585938 56.957031 86.613281 56.988281 C 86.640625 57.015625 86.675781 57.03125 86.714844 57.03125 L 86.753906 57.03125 L 86.753906 57.101562 L 85.691406 57.101562 L 85.691406 57.03125 L 85.726562 57.03125 C 85.765625 57.03125 85.800781 57.015625 85.832031 56.988281 C 85.859375 56.964844 85.886719 56.929688 85.910156 56.886719 C 85.933594 56.84375 85.949219 56.800781 85.960938 56.757812 C 85.96875 56.714844 85.972656 56.671875 85.972656 56.632812 L 85.972656 52.777344 C 85.972656 52.746094 85.96875 52.707031 85.960938 52.664062 C 85.949219 52.621094 85.933594 52.578125 85.910156 52.542969 C 85.886719 52.503906 85.859375 52.46875 85.832031 52.441406 C 85.800781 52.417969 85.765625 52.402344 85.726562 52.402344 L 85.691406 52.402344 Z M 85.691406 52.332031 " fill-opacity="1" fill-rule="nonzero"/><path fill="#000000" d="M 89.875 57.035156 L 89.910156 57.035156 L 89.910156 57.109375 L 89.078125 57.109375 L 89.078125 57.035156 L 89.113281 57.035156 C 89.152344 57.035156 89.183594 57.023438 89.214844 56.992188 C 89.25 56.964844 89.277344 56.929688 89.296875 56.890625 C 89.316406 56.851562 89.332031 56.8125 89.34375 56.765625 C 89.355469 56.71875 89.363281 56.675781 89.363281 56.640625 L 89.363281 52.785156 C 89.363281 52.753906 89.359375 52.710938 89.351562 52.667969 C 89.34375 52.625 89.332031 52.585938 89.3125 52.546875 C 89.292969 52.511719 89.265625 52.476562 89.230469 52.449219 C 89.195312 52.421875 89.152344 52.410156 89.101562 52.410156 L 89.066406 52.410156 L 89.066406 52.335938 L 89.824219 52.335938 L 92.542969 56.476562 L 92.542969 52.785156 C 92.542969 52.753906 92.535156 52.710938 92.523438 52.667969 C 92.507812 52.625 92.492188 52.585938 92.46875 52.546875 C 92.445312 52.511719 92.421875 52.476562 92.390625 52.449219 C 92.363281 52.421875 92.324219 52.410156 92.285156 52.410156 L 92.25 52.410156 L 92.25 52.335938 L 93.089844 52.335938 L 93.089844 52.410156 L 93.054688 52.410156 C 93.015625 52.410156 92.976562 52.421875 92.949219 52.449219 C 92.917969 52.476562 92.894531 52.507812 92.871094 52.546875 C 92.847656 52.585938 92.832031 52.625 92.820312 52.667969 C 92.8125 52.710938 92.808594 52.753906 92.808594 52.785156 L 92.808594 57.113281 L 92.34375 57.113281 L 89.632812 52.960938 L 89.632812 56.644531 C 89.632812 56.683594 89.636719 56.722656 89.648438 56.769531 C 89.660156 56.816406 89.675781 56.859375 89.699219 56.894531 C 89.722656 56.933594 89.746094 56.96875 89.777344 56.996094 C 89.804688 57.027344 89.84375 57.039062 89.882812 57.039062 Z M 89.875 57.035156 " fill-opacity="1" fill-rule="nonzero"/><path fill="#000000" d="M 95.402344 57.035156 L 95.4375 57.035156 C 95.476562 57.035156 95.515625 57.023438 95.542969 56.996094 C 95.574219 56.96875 95.597656 56.9375 95.621094 56.898438 C 95.644531 56.859375 95.660156 56.820312 95.675781 56.777344 C 95.6875 56.734375 95.695312 56.691406 95.695312 56.652344 L 95.695312 52.78125 C 95.695312 52.75 95.6875 52.710938 95.675781 52.667969 C 95.660156 52.625 95.644531 52.582031 95.621094 52.542969 C 95.597656 52.507812 95.574219 52.472656 95.542969 52.445312 C 95.515625 52.417969 95.476562 52.40625 95.4375 52.40625 L 95.402344 52.40625 L 95.402344 52.332031 L 98.285156 52.332031 L 98.285156 53.003906 L 98.210938 53.003906 C 98.199219 52.894531 98.15625 52.796875 98.078125 52.710938 C 97.996094 52.625 97.875 52.585938 97.703125 52.585938 L 96.199219 52.585938 L 96.199219 54.417969 L 97.441406 54.417969 C 97.554688 54.417969 97.652344 54.386719 97.730469 54.316406 C 97.808594 54.25 97.847656 54.167969 97.847656 54.074219 L 97.921875 54.074219 L 97.921875 54.980469 L 97.847656 54.980469 C 97.847656 54.894531 97.8125 54.820312 97.734375 54.757812 C 97.660156 54.695312 97.5625 54.664062 97.445312 54.664062 L 96.203125 54.664062 L 96.203125 56.859375 L 97.839844 56.859375 C 97.933594 56.859375 98.015625 56.835938 98.085938 56.792969 C 98.15625 56.75 98.214844 56.695312 98.261719 56.636719 C 98.3125 56.578125 98.34375 56.511719 98.367188 56.445312 C 98.390625 56.375 98.402344 56.316406 98.402344 56.265625 L 98.476562 56.265625 L 98.476562 57.113281 L 95.40625 57.113281 L 95.40625 57.039062 Z M 95.402344 57.035156 " fill-opacity="1" fill-rule="nonzero"/><path fill="#000000" d="M 103.675781 55.828125 C 103.675781 56.066406 103.625 56.277344 103.523438 56.445312 C 103.421875 56.617188 103.296875 56.757812 103.136719 56.863281 C 102.980469 56.96875 102.800781 57.046875 102.605469 57.09375 C 102.40625 57.140625 102.210938 57.164062 102.015625 57.164062 C 101.816406 57.164062 101.640625 57.144531 101.496094 57.105469 C 101.351562 57.066406 101.21875 57.03125 101.101562 56.996094 C 101.023438 56.972656 100.949219 56.949219 100.882812 56.933594 C 100.820312 56.917969 100.753906 56.90625 100.6875 56.90625 L 100.6875 56.082031 L 100.761719 56.082031 C 100.761719 56.265625 100.8125 56.410156 100.90625 56.519531 C 101.003906 56.628906 101.117188 56.710938 101.25 56.769531 C 101.378906 56.828125 101.507812 56.863281 101.636719 56.882812 C 101.769531 56.898438 101.863281 56.90625 101.921875 56.90625 C 102.140625 56.90625 102.324219 56.878906 102.480469 56.820312 C 102.632812 56.757812 102.761719 56.679688 102.863281 56.578125 C 102.960938 56.480469 103.035156 56.371094 103.085938 56.25 C 103.132812 56.128906 103.160156 56.003906 103.160156 55.878906 C 103.160156 55.722656 103.121094 55.585938 103.054688 55.480469 C 102.984375 55.371094 102.894531 55.273438 102.78125 55.191406 C 102.671875 55.109375 102.542969 55.039062 102.394531 54.980469 C 102.246094 54.921875 102.101562 54.867188 101.953125 54.808594 C 101.78125 54.746094 101.613281 54.679688 101.453125 54.613281 C 101.289062 54.546875 101.140625 54.460938 101.007812 54.363281 C 100.878906 54.261719 100.773438 54.144531 100.695312 54.007812 C 100.617188 53.867188 100.574219 53.699219 100.574219 53.496094 C 100.574219 53.28125 100.617188 53.101562 100.699219 52.941406 C 100.785156 52.785156 100.902344 52.65625 101.042969 52.554688 C 101.183594 52.453125 101.347656 52.375 101.527344 52.328125 C 101.710938 52.277344 101.894531 52.25 102.082031 52.25 C 102.214844 52.25 102.335938 52.261719 102.449219 52.277344 C 102.566406 52.292969 102.675781 52.3125 102.78125 52.339844 C 102.867188 52.359375 102.949219 52.375 103.027344 52.386719 C 103.105469 52.398438 103.183594 52.40625 103.261719 52.40625 L 103.261719 53.152344 L 103.183594 53.152344 C 103.175781 52.898438 103.070312 52.730469 102.875 52.640625 C 102.679688 52.550781 102.410156 52.503906 102.0625 52.503906 C 101.863281 52.503906 101.699219 52.539062 101.574219 52.605469 C 101.445312 52.667969 101.34375 52.75 101.269531 52.84375 C 101.191406 52.941406 101.140625 53.039062 101.113281 53.148438 C 101.085938 53.257812 101.070312 53.351562 101.070312 53.433594 C 101.070312 53.570312 101.105469 53.683594 101.167969 53.78125 C 101.226562 53.875 101.3125 53.960938 101.417969 54.03125 C 101.523438 54.105469 101.644531 54.171875 101.78125 54.226562 C 101.917969 54.285156 102.0625 54.339844 102.214844 54.394531 C 102.386719 54.457031 102.558594 54.523438 102.730469 54.597656 C 102.910156 54.671875 103.0625 54.761719 103.199219 54.867188 C 103.339844 54.972656 103.449219 55.101562 103.539062 55.257812 C 103.625 55.414062 103.667969 55.601562 103.667969 55.824219 Z M 103.675781 55.828125 " fill-opacity="1" fill-rule="nonzero"/><path fill="#000000" d="M 108.691406 55.828125 C 108.691406 56.066406 108.644531 56.277344 108.542969 56.445312 C 108.441406 56.617188 108.3125 56.757812 108.15625 56.863281 C 107.996094 56.96875 107.816406 57.046875 107.621094 57.09375 C 107.425781 57.140625 107.226562 57.164062 107.03125 57.164062 C 106.835938 57.164062 106.65625 57.144531 106.511719 57.105469 C 106.371094 57.066406 106.234375 57.03125 106.117188 56.996094 C 106.039062 56.972656 105.964844 56.949219 105.902344 56.933594 C 105.835938 56.917969 105.769531 56.90625 105.703125 56.90625 L 105.703125 56.082031 L 105.78125 56.082031 C 105.78125 56.265625 105.828125 56.410156 105.921875 56.519531 C 106.023438 56.628906 106.132812 56.710938 106.265625 56.769531 C 106.394531 56.828125 106.523438 56.863281 106.65625 56.882812 C 106.785156 56.898438 106.878906 56.90625 106.941406 56.90625 C 107.15625 56.90625 107.339844 56.878906 107.496094 56.820312 C 107.652344 56.757812 107.777344 56.679688 107.878906 56.578125 C 107.976562 56.480469 108.054688 56.371094 108.101562 56.25 C 108.148438 56.128906 108.175781 56.003906 108.175781 55.878906 C 108.175781 55.722656 108.140625 55.585938 108.070312 55.480469 C 108 55.371094 107.910156 55.273438 107.796875 55.191406 C 107.6875 55.109375 107.558594 55.039062 107.410156 54.980469 C 107.265625 54.921875 107.121094 54.867188 106.96875 54.808594 C 106.796875 54.746094 106.632812 54.679688 106.46875 54.613281 C 106.304688 54.546875 106.15625 54.460938 106.023438 54.363281 C 105.894531 54.261719 105.789062 54.144531 105.710938 54.007812 C 105.632812 53.867188 105.589844 53.699219 105.589844 53.496094 C 105.589844 53.28125 105.632812 53.101562 105.71875 52.941406 C 105.800781 52.785156 105.917969 52.65625 106.058594 52.554688 C 106.199219 52.453125 106.363281 52.375 106.542969 52.328125 C 106.726562 52.277344 106.910156 52.25 107.101562 52.25 C 107.230469 52.25 107.351562 52.261719 107.46875 52.277344 C 107.582031 52.292969 107.691406 52.3125 107.796875 52.339844 C 107.882812 52.359375 107.964844 52.375 108.042969 52.386719 C 108.121094 52.398438 108.199219 52.40625 108.277344 52.40625 L 108.277344 53.152344 L 108.199219 53.152344 C 108.191406 52.898438 108.085938 52.730469 107.894531 52.640625 C 107.695312 52.550781 107.425781 52.503906 107.082031 52.503906 C 106.878906 52.503906 106.714844 52.539062 106.589844 52.605469 C 106.460938 52.667969 106.359375 52.75 106.285156 52.84375 C 106.207031 52.941406 106.15625 53.039062 106.128906 53.148438 C 106.105469 53.257812 106.085938 53.351562 106.085938 53.433594 C 106.085938 53.570312 106.121094 53.683594 106.183594 53.78125 C 106.246094 53.875 106.328125 53.960938 106.433594 54.03125 C 106.539062 54.105469 106.660156 54.171875 106.796875 54.226562 C 106.9375 54.285156 107.082031 54.339844 107.230469 54.394531 C 107.402344 54.457031 107.574219 54.523438 107.75 54.597656 C 107.925781 54.671875 108.078125 54.761719 108.21875 54.867188 C 108.355469 54.972656 108.464844 55.101562 108.554688 55.257812 C 108.644531 55.414062 108.6875 55.601562 108.6875 55.824219 Z M 108.691406 55.828125 " fill-opacity="1" fill-rule="nonzero"/><path fill="#000000" d="M 46.859375 42.386719 L 47.164062 42.386719 C 47.445312 42.386719 47.710938 42.273438 47.953125 42.050781 C 48.195312 41.824219 48.410156 41.542969 48.59375 41.195312 C 48.777344 40.851562 48.910156 40.484375 48.988281 40.097656 C 49.070312 39.710938 49.109375 39.355469 49.109375 39.03125 L 49.109375 22.429688 L 31.324219 22.429688 L 31.324219 39.03125 C 31.324219 39.355469 31.363281 39.710938 31.445312 40.097656 C 31.527344 40.484375 31.648438 40.839844 31.808594 41.164062 C 31.96875 41.488281 32.160156 41.773438 32.382812 42.015625 C 32.605469 42.261719 32.878906 42.382812 33.203125 42.382812 L 33.507812 42.382812 L 33.507812 42.992188 L 23.691406 42.992188 L 23.691406 42.382812 L 23.996094 42.382812 C 24.277344 42.382812 24.542969 42.269531 24.785156 42.046875 C 25.027344 41.824219 25.242188 41.539062 25.425781 41.195312 C 25.609375 40.847656 25.738281 40.480469 25.820312 40.09375 C 25.902344 39.707031 25.941406 39.351562 25.941406 39.027344 L 25.941406 6.5 C 25.941406 6.21875 25.902344 5.894531 25.820312 5.527344 C 25.738281 5.160156 25.617188 4.816406 25.457031 4.488281 C 25.296875 4.164062 25.09375 3.890625 24.851562 3.667969 C 24.609375 3.441406 24.324219 3.332031 24.003906 3.332031 L 23.699219 3.332031 L 23.699219 2.722656 L 33.515625 2.722656 L 33.515625 3.332031 L 33.210938 3.332031 C 32.886719 3.332031 32.605469 3.441406 32.359375 3.667969 C 32.117188 3.890625 31.921875 4.164062 31.78125 4.488281 C 31.640625 4.816406 31.53125 5.160156 31.449219 5.527344 C 31.367188 5.894531 31.328125 6.21875 31.328125 6.5 L 31.328125 20.292969 L 49.113281 20.292969 L 49.113281 6.5 C 49.113281 6.21875 49.070312 5.894531 48.988281 5.527344 C 48.910156 5.160156 48.785156 4.816406 48.625 4.488281 C 48.464844 4.164062 48.261719 3.890625 48.019531 3.667969 C 47.777344 3.441406 47.492188 3.332031 47.171875 3.332031 L 46.867188 3.332031 L 46.867188 2.722656 L 56.683594 2.722656 L 56.683594 3.332031 L 56.378906 3.332031 C 56.054688 3.332031 55.773438 3.441406 55.53125 3.667969 C 55.289062 3.890625 55.09375 4.164062 54.953125 4.488281 C 54.8125 4.816406 54.703125 5.160156 54.621094 5.527344 C 54.539062 5.894531 54.5 6.21875 54.5 6.5 L 54.5 39.027344 C 54.5 39.351562 54.546875 39.707031 54.648438 40.09375 C 54.75 40.480469 54.882812 40.839844 55.046875 41.160156 C 55.207031 41.488281 55.398438 41.769531 55.621094 42.011719 C 55.84375 42.257812 56.097656 42.378906 56.382812 42.378906 L 56.6875 42.378906 L 56.6875 42.988281 L 46.871094 42.988281 L 46.871094 42.378906 Z M 46.859375 42.386719 " fill-opacity="1" fill-rule="nonzero"/><path fill="#000000" d="M 103.609375 42.386719 L 103.914062 42.386719 C 104.238281 42.386719 104.519531 42.273438 104.765625 42.050781 C 105.007812 41.824219 105.21875 41.550781 105.402344 41.226562 C 105.585938 40.902344 105.726562 40.554688 105.828125 40.1875 C 105.929688 39.824219 105.980469 39.476562 105.980469 39.152344 L 105.980469 6.503906 C 105.980469 6.222656 105.925781 5.894531 105.828125 5.53125 C 105.726562 5.164062 105.585938 4.820312 105.402344 4.492188 C 105.21875 4.167969 105.007812 3.894531 104.765625 3.667969 C 104.519531 3.445312 104.234375 3.335938 103.914062 3.335938 L 103.609375 3.335938 L 103.609375 2.726562 L 113.667969 2.726562 L 113.667969 3.335938 L 113.363281 3.335938 C 113.039062 3.335938 112.753906 3.445312 112.511719 3.667969 C 112.269531 3.894531 112.066406 4.167969 111.90625 4.492188 C 111.746094 4.820312 111.613281 5.164062 111.511719 5.53125 C 111.410156 5.894531 111.363281 6.222656 111.363281 6.503906 L 111.363281 40.738281 L 123.253906 40.738281 C 124.023438 40.738281 124.6875 40.554688 125.257812 40.1875 C 125.824219 39.824219 126.300781 39.367188 126.6875 38.816406 C 127.070312 38.265625 127.355469 37.675781 127.535156 37.046875 C 127.71875 36.417969 127.808594 35.839844 127.808594 35.308594 L 128.414062 35.308594 L 128.414062 43 L 103.613281 43 L 103.613281 42.390625 Z M 103.609375 42.386719 " fill-opacity="1" fill-rule="nonzero"/><path fill="#000000" d="M 130.53125 2.722656 L 140.71875 2.722656 C 145.210938 2.722656 149.605469 3.585938 151.933594 5.316406 C 154.257812 7.046875 155.425781 9.496094 155.425781 12.667969 C 155.425781 14.378906 155.019531 15.902344 154.207031 17.246094 C 153.394531 18.589844 152.328125 19.71875 151.007812 20.636719 C 149.683594 21.550781 147.875 22.253906 146.230469 22.738281 C 144.582031 23.226562 142.289062 23.46875 140.664062 23.46875 L 138.019531 23.46875 L 138.019531 39.035156 C 138.019531 39.359375 138.058594 39.714844 138.140625 40.101562 C 138.222656 40.488281 138.355469 40.84375 138.535156 41.167969 C 138.71875 41.492188 138.917969 41.777344 139.140625 42.019531 C 139.363281 42.265625 139.636719 42.386719 139.960938 42.386719 L 140.265625 42.386719 L 140.265625 42.996094 L 130.527344 42.996094 L 130.527344 42.386719 L 130.832031 42.386719 C 131.113281 42.386719 131.378906 42.265625 131.621094 42.019531 C 131.863281 41.777344 132.066406 41.492188 132.226562 41.167969 C 132.386719 40.839844 132.507812 40.484375 132.589844 40.101562 C 132.671875 39.714844 132.710938 39.359375 132.710938 39.035156 L 132.710938 6.507812 C 132.710938 5.9375 132.550781 5.285156 132.226562 4.554688 C 131.902344 3.824219 131.4375 3.417969 130.832031 3.335938 L 130.527344 3.335938 L 130.527344 2.726562 Z M 138.023438 4.859375 L 138.023438 21.332031 L 139.855469 21.332031 C 141.484375 21.332031 142.9375 21.109375 144.21875 20.660156 C 145.5 20.214844 146.570312 19.625 147.425781 18.894531 C 148.28125 18.164062 148.929688 17.324219 149.378906 16.390625 C 149.828125 15.457031 150.050781 14.5 150.050781 13.523438 C 150.050781 12.34375 149.855469 11.234375 149.46875 10.195312 C 149.082031 9.160156 148.453125 8.242188 147.578125 7.449219 C 146.703125 6.65625 145.554688 6.027344 144.128906 5.558594 C 142.703125 5.09375 140.953125 4.859375 138.878906 4.859375 Z M 138.023438 4.859375 " fill-opacity="1" fill-rule="nonzero"/><path fill="#000000" d="M 82.835938 35.246094 L 83.648438 36.167969 C 76.316406 42.53125 62.609375 47.296875 59.214844 36.972656 C 56.964844 30.132812 64.253906 22.335938 69.03125 19.589844 C 69.039062 19.605469 69.699219 20.347656 70.109375 20.8125 C 64.460938 24.421875 62.769531 30.371094 64.574219 34.3125 C 67.683594 41.113281 77.53125 39.746094 82.835938 35.246094 Z M 82.835938 35.246094 " fill-opacity="1" fill-rule="nonzero"/><g clip-path="url(#fb56e7e348)"><g clip-path="url(#5054974483)"><path fill="url(#7e9a696129)" d="M 65.820312 2.71875 L 65.820312 42.996094 L 102.425781 42.996094 L 102.425781 2.71875 Z M 65.820312 2.71875 " fill-rule="nonzero"/></g></g><path fill="#000000" d="M 89.230469 30.464844 L 88.429688 29.570312 C 89.601562 28.097656 90.722656 26.300781 91.359375 25.0625 C 92.214844 23.402344 92.640625 22.128906 92.640625 21.238281 C 92.640625 20.621094 92.445312 20.09375 92.058594 19.652344 C 91.667969 19.207031 90.996094 18.855469 90.046875 18.601562 C 90.023438 18.332031 89.984375 17.839844 89.984375 17.839844 C 89.984375 17.839844 99.980469 17.109375 102.386719 16.917969 C 102.386719 16.917969 102.347656 17.5625 102.324219 17.839844 C 97.277344 19.484375 94.667969 23.367188 89.230469 30.464844 Z M 89.230469 30.464844 " fill-opacity="1" fill-rule="nonzero"/></svg>